<?xml version="1.0" encoding="UTF-8" standalone="no"?>
<!DOCTYPE svg PUBLIC "-//W3C//DTD SVG 1.1//EN" "http://www.w3.org/Graphics/SVG/1.1/DTD/svg11.dtd">
<svg width="100%" height="100%" viewBox="0 0 500 500" version="1.1" xmlns="http://www.w3.org/2000/svg" xmlns:xlink="http://www.w3.org/1999/xlink" xml:space="preserve" xmlns:serif="http://www.serif.com/" style="fill-rule:evenodd;clip-rule:evenodd;stroke-linejoin:round;stroke-miterlimit:2;">
    <g transform="matrix(1,0,0,1,3.83436,124.915)">
        <path d="M25.392,250L25.392,0.17L106.339,0.17C137.014,0.17 157.01,1.42 166.326,3.92C180.641,7.669 192.627,15.82 202.284,28.374C211.94,40.928 216.769,57.146 216.769,77.028C216.769,92.365 213.985,105.26 208.419,115.712C202.852,126.165 195.779,134.373 187.202,140.337C178.624,146.302 169.905,150.25 161.043,152.181C149,154.567 131.561,155.76 108.725,155.76L75.835,155.76L75.835,250L25.392,250ZM75.835,42.434L75.835,113.327L103.442,113.327C123.324,113.327 136.617,112.02 143.32,109.407C150.023,106.794 155.277,102.704 159.083,97.137C162.889,91.57 164.792,85.094 164.792,77.71C164.792,68.621 162.122,61.122 156.783,55.215C151.443,49.307 144.683,45.615 136.503,44.138C130.482,43.002 118.382,42.434 100.204,42.434L75.835,42.434Z" style="fill:white;fill-rule:nonzero;"/>
        <path d="M418.03,158.146L466.939,173.654C459.441,200.92 446.972,221.171 429.533,234.407C412.094,247.643 389.968,254.26 363.156,254.26C329.982,254.26 302.715,242.928 281.357,220.262C259.998,197.597 249.318,166.61 249.318,127.301C249.318,85.719 260.055,53.425 281.527,30.419C302.999,7.413 331.232,-4.09 366.224,-4.09C396.785,-4.09 421.609,4.942 440.695,23.006C452.056,33.686 460.577,49.023 466.258,69.018L416.326,80.948C413.372,67.996 407.209,57.771 397.836,50.273C388.463,42.774 377.073,39.025 363.667,39.025C345.149,39.025 330.124,45.671 318.592,58.964C307.061,72.256 301.295,93.786 301.295,123.551C301.295,155.135 306.976,177.63 318.337,191.036C329.698,204.442 344.467,211.145 362.645,211.145C376.051,211.145 387.582,206.885 397.239,198.364C406.896,189.843 413.826,176.437 418.03,158.146Z" style="fill:white;fill-rule:nonzero;"/>
    </g>
</svg>
